<svg xmlns="http://www.w3.org/2000/svg" viewBox="0 0 40 40">
  <defs>
    <linearGradient id="bg" x1="0" y1="0" x2="1" y2="1">
      <stop offset="0%" stop-color="#0F172A"/>
      <stop offset="100%" stop-color="#1E293B"/>
    </linearGradient>
    <linearGradient id="fg" x1="0" y1="0" x2="1" y2="0">
      <stop offset="0%" stop-color="#22D3EE"/>
      <stop offset="100%" stop-color="#2DD4BF"/>
    </linearGradient>
  </defs>
  <rect x="1" y="1" width="38" height="38" rx="10" fill="url(#bg)" stroke="#22D3EE" stroke-opacity="0.3"/>
  <path d="M14 11 C 11.5 11, 11 12.5, 11 14.5 L 11 18 C 11 19.2, 10.4 20, 9 20 C 10.4 20, 11 20.8, 11 22 L 11 25.5 C 11 27.5, 11.5 29, 14 29" fill="none" stroke="url(#fg)" stroke-width="2" stroke-linecap="round" stroke-linejoin="round"/>
  <line x1="17" y1="17.5" x2="23" y2="17.5" stroke="#F8FAFC" stroke-width="2" stroke-linecap="round"/>
  <line x1="17" y1="22.5" x2="23" y2="22.5" stroke="#F8FAFC" stroke-width="2" stroke-linecap="round"/>
  <path d="M26 11 C 28.5 11, 29 12.5, 29 14.5 L 29 18 C 29 19.2, 29.6 20, 31 20 C 29.6 20, 29 20.8, 29 22 L 29 25.5 C 29 27.5, 28.5 29, 26 29" fill="none" stroke="url(#fg)" stroke-width="2" stroke-linecap="round" stroke-linejoin="round"/>
</svg>
